<svg width="173" height="184" viewBox="0 0 173 184" fill="none" xmlns="http://www.w3.org/2000/svg">
<path fill-rule="evenodd" clip-rule="evenodd" d="M83.3634 0.0193521C82.4841 0.119574 80.8877 0.490325 79.949 0.81229C77.4627 1.66501 74.8602 3.22821 71.6437 5.80069C62.2352 13.3256 56.5254 24.2625 54.1624 39.285C53.8329 41.3804 53.4934 43.9487 53.5395 43.9978C53.5912 44.0527 54.5516 42.586 54.9632 41.8236C55.5191 40.7938 56.0884 39.5556 57.0716 37.2383C59.7517 30.9212 60.9864 28.5863 64.5541 23.0878C67.2994 18.8571 69.0872 16.4601 71.0852 14.3315C74.1616 11.0539 77.0353 9.21088 80.4712 8.31163C82.1226 7.87943 82.9701 7.77715 84.8861 7.77862C90.4262 7.78274 95.1302 9.87198 99.1003 14.0914C104.006 19.3053 107.35 26.9395 110.432 39.9586C112.662 49.3785 113.991 58.8488 114.641 69.9465C115.065 77.1726 115.175 83.9764 115.044 94.8064C114.987 99.5443 114.972 103.453 115.01 103.494C115.106 103.593 115.737 102.831 116.266 101.975C116.746 101.198 117.184 100.018 117.409 98.8936C117.701 97.4376 117.994 91.0141 118.076 84.2779C118.299 65.8139 116.329 48.3189 112.328 33.2346C111.653 30.6866 109.949 25.2785 109.282 23.5658C108.635 21.9011 107.169 18.7231 106.326 17.1554C103.292 11.5152 99.8175 7.14087 96.0983 4.27911C93.4828 2.26673 90.6814 0.891604 87.9806 0.294593C87.1198 0.104359 86.5174 0.0410455 85.3013 0.0131681C84.4385 -0.00656215 83.5665 -0.00381366 83.3634 0.0193521ZM97.2518 0.27928C97.2518 0.302937 97.5529 0.598694 97.9208 0.936463C107.421 9.6579 114.198 22.0483 118.004 37.6518C120.273 46.9508 121.533 57.0733 121.988 69.652C122.191 75.2461 122.102 85.9571 121.792 93.3909C121.737 94.705 121.707 95.7964 121.726 95.8163C121.788 95.8821 122.596 93.588 123.163 91.7381C124.65 86.8838 125.55 81.7016 126.061 75.0508C126.22 72.9809 126.22 64.5702 126.062 62.2409C125.581 55.1939 124.641 48.9161 123.092 42.4126C118.685 23.9084 110.55 9.35046 100.712 2.3645C99.5855 1.5643 97.2518 0.158052 97.2518 0.27928ZM61.3544 50.812C44.1706 51.4241 26.2043 57.1364 14.0141 65.8639C11.0971 67.9524 9.01245 69.7661 6.67312 72.2509C4.86994 74.1661 3.46025 75.9656 2.24952 77.8975C1.4631 79.1524 0.206416 81.5007 0.279688 81.5786C0.302112 81.6024 0.588092 81.2816 0.915229 80.8656C1.86877 79.6532 4.90685 76.4055 6.28766 75.1227C17.0408 65.1324 31.3219 59.0914 50.1883 56.5523C60.3764 55.1812 71.8343 54.824 86.5471 55.4187C87.8414 55.471 89.191 55.5355 89.5463 55.5622C90.1865 55.6101 90.1899 55.6091 89.9154 55.449C89.4897 55.2007 87.1169 54.291 85.6097 53.7985C80.1596 52.0173 74.39 51.0664 67.4503 50.8058C64.6886 50.702 64.4387 50.7022 61.3544 50.812ZM131.58 57.4121C131.58 57.4287 131.84 57.6446 132.157 57.8918C133.211 58.713 134.919 59.6753 137.856 61.1024C143.503 63.8458 145.659 65.0905 149.391 67.7623C157.044 73.2421 160.357 76.3349 162.77 80.2533C165.62 84.8821 166.399 90.5229 164.987 96.3203C163.196 103.675 157.513 109.508 148.09 113.662C141.809 116.43 131.477 119.248 122.148 120.737C115.993 121.72 110.521 122.251 102.143 122.681C99.529 122.814 76.5519 122.846 75.9036 122.717C75.6229 122.661 75.5774 122.675 75.6237 122.804C75.7274 123.091 76.9015 124.037 77.6881 124.467C79.1299 125.256 80.0282 125.455 83.0405 125.65C91.2543 126.184 100.728 126.183 108.741 125.648C121.959 124.765 133.989 122.531 144.712 118.967C149.526 117.367 152.711 115.968 156.146 113.945C163.538 109.593 168.374 104.706 171.079 98.8547C173.058 94.5763 173.488 90.7144 172.462 86.4374C171.318 81.6714 166.842 74.7779 161.887 70.1531C154.698 63.4426 145.902 59.5435 133.749 57.6798C131.822 57.3844 131.58 57.3545 131.58 57.4121ZM70.5825 59.509C55.3335 60.0973 42.7166 62.0579 30.9029 65.6749C25.9306 67.1972 22.4775 68.5419 19.3203 70.1852C12.5233 73.7232 7.34825 77.9882 4.12634 82.7073C-0.510332 89.4987 -1.23649 96.1982 1.93309 102.941C2.73059 104.638 3.914 106.608 5.43452 108.769C12.3185 118.553 22.2383 124.566 35.8789 127.221C37.8987 127.615 40.9866 128.086 41.2151 128.036C41.3256 128.012 41.152 127.834 40.6572 127.465C39.5012 126.602 38.0841 125.807 35.306 124.465C31.804 122.773 28.4879 120.999 26.7375 119.881C25.3288 118.982 21.764 116.432 19.4587 114.675C11.3067 108.462 7.90452 103.274 7.35904 96.2241C7.14311 93.4332 7.59501 90.0219 8.53664 87.3342C10.212 82.552 13.4606 78.6261 18.582 75.1942C20.9473 73.6093 25.3035 71.5092 28.8252 70.2563C34.2727 68.3182 41.6484 66.3788 47.8894 65.2434C55.2299 63.9079 62.3989 63.1698 71.9667 62.7643C75.1632 62.6289 86.4433 62.5977 93.053 62.7063L97.4825 62.7789L96.8586 62.1512C95.8673 61.1539 94.3239 60.39 92.683 60.0845C91.8671 59.9326 88.1345 59.6912 84.2863 59.5416C82.1133 59.4571 72.5202 59.4343 70.5825 59.509ZM58.111 80.9159C57.1348 81.9947 56.4982 83.3802 56.1472 85.1899C55.6322 87.8452 55.3112 103.39 55.6197 110.732C56.3644 128.453 58.7521 143.399 62.927 156.475C64.7504 162.186 67.0379 167.001 70.0853 171.542C74.8288 178.612 80.6098 182.936 86.5652 183.869C88.0456 184.101 90.3322 184.017 91.8597 183.675C94.5534 183.071 97.0286 181.829 100.343 179.418C104.43 176.446 108.255 172.421 111.026 168.178C115.429 161.434 118.344 152.864 119.715 142.634C119.845 141.662 119.974 140.668 120 140.426L120.049 139.984L119.764 140.327C119.036 141.206 117.799 143.665 116.275 147.263C113.559 153.675 111.982 156.536 107.415 163.335C105.125 166.744 102.435 169.957 100.435 171.67C96.0335 175.442 91.2849 176.841 85.7228 176.007C80.3874 175.207 75.7552 172.148 72.0909 167.006C68.4076 161.837 65.7076 154.907 63.1507 144.057C60.3572 132.204 59.0391 121.13 58.5767 105.628C58.467 101.948 58.5215 80.9388 58.6417 80.6057C58.7436 80.323 58.5394 80.4424 58.111 80.9159ZM51.5758 88.7668C49.3136 94.9168 48.0893 101.052 47.496 109.211C47.3416 111.334 47.3409 119.207 47.4948 121.432C47.7854 125.629 48.1405 128.924 48.6743 132.376C50.7961 146.099 55.2668 159.002 61.2377 168.636C64.7099 174.238 68.6287 178.617 72.8434 181.604C74.0979 182.494 76.191 183.769 76.2656 183.689C76.2859 183.668 75.8589 183.236 75.3169 182.729C65.8056 173.845 59.1821 161.51 55.4108 145.658C51.9864 131.264 50.8553 114.299 51.765 90.9716C51.8225 89.4974 51.8502 88.2707 51.8268 88.2457C51.8033 88.2208 51.6904 88.4552 51.5758 88.7668ZM171.861 104.863C170.803 106.179 168.291 108.87 166.922 110.155C155.22 121.132 139.271 127.402 117.646 129.526C115.42 129.744 112.585 129.953 109.294 130.14C106.358 130.307 91.9313 130.308 88.2543 130.141C86.7825 130.074 84.9553 129.996 84.194 129.967L82.8098 129.914L83.5941 130.268C86.7813 131.704 92.2595 133.203 96.8365 133.891C100.944 134.51 103.443 134.679 108.418 134.677C112.493 134.676 113.902 134.613 117.277 134.282C132.876 132.754 148.487 127.231 159.219 119.442C162.087 117.36 164.002 115.678 166.329 113.196C168.266 111.13 169.534 109.51 170.77 107.522C171.556 106.258 172.797 103.939 172.726 103.866C172.707 103.846 172.318 104.295 171.861 104.863Z" fill="#FFD200"/>
</svg>
